                            <svg
                                width="56"
                                height="66"
                                viewBox="0 0 56 66"
                                fill="none"
                                xmlns="http://www.w3.org/2000/svg"
                            >
                                <path
                                    d="M50.0267 15.3403C52.5255 16.7535 54.0705 19.4022 54.0705 22.2729V43.6502C54.0705 46.4688 52.5807 49.0774 50.1532 50.5097L32.2878 61.0506C29.7937 62.5222 26.6973 62.524 24.2014 61.0553L5.8548 50.2594C3.42274 48.8283 1.92954 46.2171 1.92954 43.3952V22.3764C1.92954 19.4825 3.49928 16.8163 6.02975 15.4122L24.4007 5.21869C26.8244 3.87385 29.7729 3.88583 32.1856 5.25032L50.0267 15.3403Z"
                                    stroke="#FFB733"
                                    stroke-width="3.85909"
                                />
                                <path
                                    d="M2.6217 46.9258L27.7524 3.59009"
                                    stroke="#FFB733"
                                    stroke-width="3.85909"
                                />
                                <path
                                    d="M25.2793 61.9639L16.3747 25.2571"
                                    stroke="#FFB733"
                                    stroke-width="3.85909"
                                />
                                <path
                                    d="M52.8833 17.8369L15.1872 25.2574"
                                    stroke="#FFB733"
                                    stroke-width="3.85909"
                                />
                                <path
                                    d="M53.576 46.332L16.3746 24.6642"
                                    stroke="#FFB733"
                                    stroke-width="3.85909"
                                />
                            </svg>